<?xml version="1.0" encoding="UTF-8"?>
<!DOCTYPE svg PUBLIC "-//W3C//DTD SVG 1.1//EN" "http://www.w3.org/Graphics/SVG/1.1/DTD/svg11.dtd">
<svg xmlns="http://www.w3.org/2000/svg" version="1.1" width="517px" height="482px" style="shape-rendering:geometricPrecision; text-rendering:geometricPrecision; image-rendering:optimizeQuality; fill-rule:evenodd; clip-rule:evenodd" xmlns:xlink="http://www.w3.org/1999/xlink">
<g><path style="opacity:1" fill="#cb593c" d="M 218.5,93.5 C 218.119,94.9311 217.119,95.7645 215.5,96C 209.4,96.8971 203.4,98.0637 197.5,99.5C 197.5,98.8333 197.5,98.1667 197.5,97.5C 204.326,95.4018 211.326,94.0685 218.5,93.5 Z"/></g>
<g><path style="opacity:1" fill="#ef5421" d="M 219.5,92.5 C 222.355,94.2501 225.689,95.0835 229.5,95C 230.249,96.7337 230.749,98.567 231,100.5C 231.175,130.905 231.675,161.238 232.5,191.5C 232.667,226.168 232.5,260.835 232,295.5C 230.139,293.112 228.806,290.446 228,287.5C 227.014,288.171 225.847,288.171 224.5,287.5C 223.361,284.996 222.694,282.33 222.5,279.5C 221.325,279.719 220.325,279.386 219.5,278.5C 218.639,276.089 217.306,274.089 215.5,272.5C 212.084,268.677 209.418,264.343 207.5,259.5C 206.978,254.856 204.978,251.189 201.5,248.5C 197.103,239.629 193.103,230.629 189.5,221.5C 189.5,220.167 189.5,218.833 189.5,217.5C 189.976,213.622 188.976,210.288 186.5,207.5C 183.969,184.94 182.969,162.273 183.5,139.5C 184.232,133.845 184.899,128.179 185.5,122.5C 189.226,114.715 193.226,107.048 197.5,99.5C 203.4,98.0637 209.4,96.8971 215.5,96C 217.119,95.7645 218.119,94.9311 218.5,93.5C 218.5,92.8333 218.833,92.5 219.5,92.5 Z"/></g>
<g><path style="opacity:1" fill="#ef5421" d="M 279.5,96.5 C 283.792,99.2954 286.792,103.129 288.5,108C 288.095,108.945 287.428,109.612 286.5,110C 287.793,110.49 289.127,110.657 290.5,110.5C 290.877,114.212 292.544,117.212 295.5,119.5C 297.366,132.41 298.366,145.41 298.5,158.5C 297.971,176.56 296.304,194.56 293.5,212.5C 291.077,224.988 286.743,236.655 280.5,247.5C 276.78,249.249 275.113,252.249 275.5,256.5C 274.5,256.5 273.5,256.5 272.5,256.5C 272.246,259.014 271.413,261.348 270,263.5C 269.818,260.774 269.318,258.107 268.5,255.5C 267.808,256.025 267.308,256.692 267,257.5C 266.667,257.167 266.333,256.833 266,256.5C 265.691,257.766 265.191,258.933 264.5,260C 265.901,261.677 267.235,263.344 268.5,265C 267.144,266.567 266.477,268.4 266.5,270.5C 265.5,270.5 264.5,270.5 263.5,270.5C 263.11,273.839 262.61,277.173 262,280.5C 260.333,281.167 258.667,281.833 257,282.5C 256.667,282.167 256.333,281.833 256,281.5C 256.374,283.769 256.374,286.102 256,288.5C 255.29,289.973 254.124,290.64 252.5,290.5C 252.5,292.167 252.5,293.833 252.5,295.5C 252.167,295.5 251.833,295.5 251.5,295.5C 250.17,289.202 249.503,282.535 249.5,275.5C 250.407,220.838 250.741,166.171 250.5,111.5C 250.5,105.833 250.5,100.167 250.5,94.5C 260.125,95.6631 269.792,96.3298 279.5,96.5 Z"/></g>
<g><path style="opacity:1" fill="#c85c3c" d="M 250.5,91.5 C 260.432,92.3438 270.098,94.0105 279.5,96.5C 269.792,96.3298 260.125,95.6631 250.5,94.5C 250.5,100.167 250.5,105.833 250.5,111.5C 250.167,111.5 249.833,111.5 249.5,111.5C 249.5,105.5 249.5,99.5 249.5,93.5C 250.338,93.1583 250.672,92.4916 250.5,91.5 Z"/></g>
<g><path style="opacity:1" fill="#d9633d" d="M 279.5,96.5 C 281.099,96.2322 282.432,96.5655 283.5,97.5C 289.621,103.746 293.621,111.079 295.5,119.5C 292.544,117.212 290.877,114.212 290.5,110.5C 289.127,110.657 287.793,110.49 286.5,110C 287.428,109.612 288.095,108.945 288.5,108C 286.792,103.129 283.792,99.2954 279.5,96.5 Z"/></g>
<g><path style="opacity:1" fill="#e69f83" d="M 227.5,91.5 C 229.167,91.5 230.833,91.5 232.5,91.5C 233.459,103.45 233.793,115.45 233.5,127.5C 232.67,116.674 232.17,105.674 232,94.5C 230.69,93.1031 229.19,92.1031 227.5,91.5 Z"/></g>
<g><path style="opacity:1" fill="#07539e" d="M 306.5,105.5 C 345.311,122.978 372.978,151.311 389.5,190.5C 386.978,191.011 384.645,192.011 382.5,193.5C 377.875,194.159 373.875,195.826 370.5,198.5C 369.711,201.434 367.711,203.268 364.5,204C 362.787,205.378 361.453,207.045 360.5,209C 359.167,209.333 357.833,209.667 356.5,210C 357.337,211.011 357.67,212.178 357.5,213.5C 347.802,223.03 338.636,233.03 330,243.5C 315.667,261.833 301.333,280.167 287,298.5C 281.484,304.242 275.984,309.908 270.5,315.5C 266.358,315.403 264.024,317.403 263.5,321.5C 261.868,322.297 260.368,323.297 259,324.5C 258.228,324.355 257.561,324.022 257,323.5C 255.651,325.934 253.818,326.768 251.5,326C 253.607,327.264 254.607,329.097 254.5,331.5C 249.615,330.392 244.948,330.392 240.5,331.5C 242.149,330.012 244.149,329.012 246.5,328.5C 244.807,326.973 242.973,325.64 241,324.5C 240.55,327.106 239.05,328.439 236.5,328.5C 236.421,327.07 236.754,325.736 237.5,324.5C 242.653,324.89 245.32,322.557 245.5,317.5C 267.042,296.051 284.375,271.717 297.5,244.5C 299.129,242.94 300.296,243.273 301,245.5C 301.199,243.598 302.033,242.098 303.5,241C 302.978,240.439 302.645,239.772 302.5,239C 304.182,232.986 306.348,227.152 309,221.5C 309.495,219.527 309.662,217.527 309.5,215.5C 321.758,181.041 319.925,147.374 304,114.5C 302.927,110.9 303.76,107.9 306.5,105.5 Z"/></g>
<g><path style="opacity:1" fill="#06539e" d="M 175.5,105.5 C 178.24,107.9 179.073,110.9 178,114.5C 173.024,125.116 169.19,136.116 166.5,147.5C 164.986,148.68 163.319,149.68 161.5,150.5C 162.937,152.021 163.604,153.855 163.5,156C 161.712,173.462 162.879,190.629 167,207.5C 167.333,207.167 167.667,206.833 168,206.5C 168.424,209.025 169.59,211.025 171.5,212.5C 171.975,217.717 173.142,222.717 175,227.5C 175.671,228.252 176.504,228.586 177.5,228.5C 178.938,234.015 180.104,239.682 181,245.5C 183.692,246.702 184.526,248.536 183.5,251C 185.934,253.701 187.434,256.868 188,260.5C 190.654,261.996 193.154,263.663 195.5,265.5C 201.493,274.495 207.493,283.495 213.5,292.5C 212.919,296.247 211.919,299.914 210.5,303.5C 208.473,305.339 206.14,305.839 203.5,305C 200.934,300.932 197.601,297.765 193.5,295.5C 175.91,273.399 158.076,251.399 140,229.5C 126.347,215.172 111.514,202.339 95.5,191C 94.552,190.517 93.552,190.351 92.5,190.5C 109.022,151.311 136.689,122.978 175.5,105.5 Z"/></g>
<g><path style="opacity:1" fill="#f9fbf9" d="M 247.5,300.5 C 249.027,300.573 250.027,299.906 250.5,298.5C 251.11,297.609 251.443,296.609 251.5,295.5C 251.833,295.5 252.167,295.5 252.5,295.5C 255.736,290.723 259.236,286.056 263,281.5C 267.893,272.05 273.06,262.716 278.5,253.5C 280.124,255.137 281.124,254.803 281.5,252.5C 283.749,243.91 287.249,235.91 292,228.5C 293.149,222.742 295.149,217.408 298,212.5C 299.087,205.54 299.587,198.54 299.5,191.5C 300.936,170.824 300.77,150.157 299,129.5C 298.014,125.996 296.847,122.663 295.5,119.5C 293.621,111.079 289.621,103.746 283.5,97.5C 291.67,98.9997 299.336,101.666 306.5,105.5C 303.76,107.9 302.927,110.9 304,114.5C 319.925,147.374 321.758,181.041 309.5,215.5C 305.52,225.09 301.52,234.757 297.5,244.5C 284.375,271.717 267.042,296.051 245.5,317.5C 243.871,318.625 242.371,319.959 241,321.5C 231.236,312.24 222.069,302.573 213.5,292.5C 207.493,283.495 201.493,274.495 195.5,265.5C 189.208,253.251 183.208,240.917 177.5,228.5C 176.013,222.88 174.013,217.547 171.5,212.5C 164.489,191.238 162.822,169.571 166.5,147.5C 169.19,136.116 173.024,125.116 178,114.5C 179.073,110.9 178.24,107.9 175.5,105.5C 181.45,102.368 187.784,100.035 194.5,98.5C 192.173,99.8587 189.84,101.359 187.5,103C 188.516,103.519 189.182,104.353 189.5,105.5C 186.439,112.29 183.939,119.29 182,126.5C 181.345,137.498 179.845,148.331 177.5,159C 178,159.5 178.5,160 179,160.5C 179.728,176.987 180.728,193.321 182,209.5C 185.195,213.168 187.695,217.168 189.5,221.5C 193.103,230.629 197.103,239.629 201.5,248.5C 203.25,252.335 205.25,256.001 207.5,259.5C 209.418,264.343 212.084,268.677 215.5,272.5C 217.315,278.292 220.315,283.292 224.5,287.5C 225.847,290.193 227.18,292.86 228.5,295.5C 228.949,299.048 229.949,302.381 231.5,305.5C 235.664,305.228 237.497,302.894 237,298.5C 238.96,296.964 240.46,295.131 241.5,293C 241.027,290.175 239.694,289.842 237.5,292C 237.833,292.333 238.167,292.667 238.5,293C 237.809,294.067 237.309,295.234 237,296.5C 236.646,272.163 236.146,247.83 235.5,223.5C 237.065,206.642 236.732,189.975 234.5,173.5C 234.5,146.5 234.5,119.5 234.5,92.5C 238.833,92.5 243.167,92.5 247.5,92.5C 246.381,161.999 246.381,231.332 247.5,300.5 Z"/></g>
<g><path style="opacity:1" fill="#dd8260" d="M 185.5,122.5 C 184.899,128.179 184.232,133.845 183.5,139.5C 183.167,139.5 182.833,139.5 182.5,139.5C 182.45,134.448 182.95,129.448 184,124.5C 184.278,123.584 184.778,122.918 185.5,122.5 Z"/></g>
<g><path style="opacity:1" fill="#d37856" d="M 197.5,99.5 C 193.226,107.048 189.226,114.715 185.5,122.5C 186.867,113.357 190.867,105.69 197.5,99.5 Z"/></g>
<g><path style="opacity:1" fill="#db643e" d="M 295.5,119.5 C 296.847,122.663 298.014,125.996 299,129.5C 300.77,150.157 300.936,170.824 299.5,191.5C 297.966,198.638 295.966,205.638 293.5,212.5C 296.304,194.56 297.971,176.56 298.5,158.5C 298.366,145.41 297.366,132.41 295.5,119.5 Z"/></g>
<g><path style="opacity:1" fill="#d4744f" d="M 182.5,143.5 C 182.308,158.851 182.641,174.184 183.5,189.5C 182.691,187.708 182.191,185.708 182,183.5C 181.173,169.994 181.34,156.66 182.5,143.5 Z"/></g>
<g><path style="opacity:1" fill="#195491" d="M 166.5,147.5 C 162.822,169.571 164.489,191.238 171.5,212.5C 169.59,211.025 168.424,209.025 168,206.5C 167.667,206.833 167.333,207.167 167,207.5C 162.879,190.629 161.712,173.462 163.5,156C 163.604,153.855 162.937,152.021 161.5,150.5C 163.319,149.68 164.986,148.68 166.5,147.5 Z"/></g>
<g><path style="opacity:1" fill="#dc5a2e" d="M 182.5,139.5 C 182.833,139.5 183.167,139.5 183.5,139.5C 182.969,162.273 183.969,184.94 186.5,207.5C 185.013,201.709 184.013,195.709 183.5,189.5C 182.641,174.184 182.308,158.851 182.5,143.5C 182.5,142.167 182.5,140.833 182.5,139.5 Z"/></g>
<g><path style="opacity:1" fill="#fdefe4" d="M 197.5,97.5 C 197.5,98.1667 197.5,98.8333 197.5,99.5C 190.867,105.69 186.867,113.357 185.5,122.5C 184.778,122.918 184.278,123.584 184,124.5C 182.95,129.448 182.45,134.448 182.5,139.5C 182.5,140.833 182.5,142.167 182.5,143.5C 181.34,156.66 181.173,169.994 182,183.5C 182.191,185.708 182.691,187.708 183.5,189.5C 184.013,195.709 185.013,201.709 186.5,207.5C 186.723,211.162 187.723,214.495 189.5,217.5C 189.5,218.833 189.5,220.167 189.5,221.5C 187.695,217.168 185.195,213.168 182,209.5C 180.728,193.321 179.728,176.987 179,160.5C 178.5,160 178,159.5 177.5,159C 179.845,148.331 181.345,137.498 182,126.5C 183.939,119.29 186.439,112.29 189.5,105.5C 189.182,104.353 188.516,103.519 187.5,103C 189.84,101.359 192.173,99.8587 194.5,98.5C 195.391,97.8902 196.391,97.5569 197.5,97.5 Z"/></g>
<g><path style="opacity:1" fill="#fae2d5" d="M 232.5,91.5 C 238.5,91.5 244.5,91.5 250.5,91.5C 250.672,92.4916 250.338,93.1583 249.5,93.5C 247.948,147.326 247.282,201.326 247.5,255.5C 247.5,270.5 247.5,285.5 247.5,300.5C 246.381,231.332 246.381,161.999 247.5,92.5C 243.167,92.5 238.833,92.5 234.5,92.5C 234.5,119.5 234.5,146.5 234.5,173.5C 234.5,190.167 234.5,206.833 234.5,223.5C 234.167,223.5 233.833,223.5 233.5,223.5C 233.5,212.833 233.5,202.167 233.5,191.5C 233.5,170.167 233.5,148.833 233.5,127.5C 233.793,115.45 233.459,103.45 232.5,91.5 Z"/></g>
<g><path style="opacity:1" fill="#d75f33" d="M 227.5,91.5 C 229.19,92.1031 230.69,93.1031 232,94.5C 232.17,105.674 232.67,116.674 233.5,127.5C 233.5,148.833 233.5,170.167 233.5,191.5C 233.167,191.5 232.833,191.5 232.5,191.5C 231.675,161.238 231.175,130.905 231,100.5C 230.749,98.567 230.249,96.7337 229.5,95C 225.689,95.0835 222.355,94.2501 219.5,92.5C 222.279,92.7214 224.946,92.388 227.5,91.5 Z"/></g>
<g><path style="opacity:1" fill="#eba98e" d="M 249.5,93.5 C 249.5,99.5 249.5,105.5 249.5,111.5C 248.833,159.497 248.5,207.497 248.5,255.5C 248.167,255.5 247.833,255.5 247.5,255.5C 247.282,201.326 247.948,147.326 249.5,93.5 Z"/></g>
<g><path style="opacity:1" fill="#c8735b" d="M 394.5,203.5 C 394.629,205.216 394.962,206.883 395.5,208.5C 394.393,207.008 392.893,206.008 391,205.5C 388.718,206.29 386.552,207.29 384.5,208.5C 386.911,205.186 390.245,203.519 394.5,203.5 Z"/></g>
<g><path style="opacity:1" fill="#d97e5a" d="M 102.5,213.5 C 106.234,216.231 109.234,219.564 111.5,223.5C 107.766,220.769 104.766,217.436 102.5,213.5 Z"/></g>
<g><path style="opacity:1" fill="#ef5421" d="M 99.5,210.5 C 100.833,211.167 101.833,212.167 102.5,213.5C 104.766,217.436 107.766,220.769 111.5,223.5C 113.43,227.1 116.097,230.1 119.5,232.5C 120.031,234.544 121.198,236.211 123,237.5C 123.266,242.933 126.1,245.933 131.5,246.5C 132.08,248.749 133.413,250.415 135.5,251.5C 136.167,254.5 136.833,257.5 137.5,260.5C 139.965,260.767 142.299,261.434 144.5,262.5C 146.665,268.671 150.665,273.337 156.5,276.5C 158.766,280.436 161.766,283.769 165.5,286.5C 165.369,287.239 165.536,287.906 166,288.5C 173.089,296.094 180.589,303.094 188.5,309.5C 196.116,316.109 203.783,322.775 211.5,329.5C 211.539,330.583 211.873,331.583 212.5,332.5C 212,332.833 211.5,333.167 211,333.5C 205.321,331.55 199.487,330.55 193.5,330.5C 189.498,328.39 185.165,327.057 180.5,326.5C 176.29,324.65 171.956,322.983 167.5,321.5C 162.046,317.424 156.046,314.09 149.5,311.5C 148.396,310.369 148.729,309.535 150.5,309C 146.83,308.452 143.163,307.952 139.5,307.5C 136.018,303.871 132.018,300.704 127.5,298C 131.265,296.623 130.932,295.623 126.5,295C 125.971,292.571 124.637,290.738 122.5,289.5C 121.614,290.325 121.281,291.325 121.5,292.5C 118.393,292.826 116.06,291.659 114.5,289C 109.905,286.208 105.239,283.708 100.5,281.5C 98.7446,280.928 97.0779,280.094 95.5,279C 91.6558,275.257 87.6558,271.757 83.5,268.5C 83.5,268.167 83.5,267.833 83.5,267.5C 82.4305,257.913 82.4305,248.413 83.5,239C 85.1142,228.149 86.9475,217.316 89,206.5C 89.414,206.043 89.914,205.709 90.5,205.5C 93.269,207.684 96.269,209.351 99.5,210.5 Z"/></g>
<g><path style="opacity:1" fill="#d47752" d="M 384.5,208.5 C 384.267,210.062 383.6,211.395 382.5,212.5C 375.064,219.269 368.064,226.269 361.5,233.5C 368.09,224.24 375.757,215.907 384.5,208.5 Z"/></g>
<g><path style="opacity:1" fill="#ef5421" d="M 343.5,306.5 C 340.567,308.645 337.567,310.812 334.5,313C 326.549,315.483 318.882,318.65 311.5,322.5C 307.203,323.655 303.203,325.321 299.5,327.5C 294.112,328.62 288.779,329.953 283.5,331.5C 279.125,332.274 274.792,332.274 270.5,331.5C 271.524,330.148 272.524,328.815 273.5,327.5C 287.089,317.912 299.089,306.579 309.5,293.5C 312.394,292.118 314.894,290.118 317,287.5C 324.069,279.274 330.902,270.94 337.5,262.5C 339.645,261.011 341.978,260.011 344.5,259.5C 344.491,257.692 344.991,256.025 346,254.5C 348.472,252.702 350.139,250.368 351,247.5C 354.098,244.57 357.598,242.236 361.5,240.5C 360.975,239.808 360.308,239.308 359.5,239C 360.464,237.275 361.131,235.441 361.5,233.5C 368.064,226.269 375.064,219.269 382.5,212.5C 385.848,211.988 388.181,210.155 389.5,207C 390.448,206.517 391.448,206.351 392.5,206.5C 392.25,209.214 392.083,211.881 392,214.5C 393,213.167 394,213.167 395,214.5C 395.499,217.022 395.332,219.522 394.5,222C 394.826,224.484 395.826,226.651 397.5,228.5C 398.833,240.833 398.833,253.167 397.5,265.5C 394.946,266.899 393.28,268.899 392.5,271.5C 391.5,271.5 390.5,271.5 389.5,271.5C 391.665,267.162 390.331,265.162 385.5,265.5C 385.579,267.666 386.246,269.666 387.5,271.5C 386.629,276.046 383.962,278.379 379.5,278.5C 379.649,279.552 379.483,280.552 379,281.5C 377.027,283.228 375.194,285.061 373.5,287C 371.527,287.495 369.527,287.662 367.5,287.5C 367.5,288.5 367.5,289.5 367.5,290.5C 366.167,290.5 364.833,290.5 363.5,290.5C 363.592,294.071 361.926,295.238 358.5,294C 359.711,293.107 359.711,292.274 358.5,291.5C 357.15,292.95 355.484,293.617 353.5,293.5C 353.286,295.144 353.62,296.644 354.5,298C 351.854,298.497 349.187,298.664 346.5,298.5C 346.59,301.641 345.59,304.308 343.5,306.5 Z"/></g>
<g><path style="opacity:1" fill="#d4724d" d="M 111.5,223.5 C 114.903,225.9 117.57,228.9 119.5,232.5C 116.097,230.1 113.43,227.1 111.5,223.5 Z"/></g>
<g><path style="opacity:1" fill="#de592d" d="M 249.5,111.5 C 249.833,111.5 250.167,111.5 250.5,111.5C 250.741,166.171 250.407,220.838 249.5,275.5C 249.503,282.535 250.17,289.202 251.5,295.5C 251.443,296.609 251.11,297.609 250.5,298.5C 248.517,284.539 247.85,270.206 248.5,255.5C 248.5,207.497 248.833,159.497 249.5,111.5 Z"/></g>
<g><path style="opacity:1" fill="#d45937" d="M 88.5,203.5 C 93.3877,203.688 97.0543,206.022 99.5,210.5C 96.269,209.351 93.269,207.684 90.5,205.5C 89.914,205.709 89.414,206.043 89,206.5C 86.9475,217.316 85.1142,228.149 83.5,239C 82.4305,248.413 82.4305,257.913 83.5,267.5C 82.8333,267.5 82.1667,267.5 81.5,267.5C 79.2798,245.569 81.6132,224.235 88.5,203.5 Z"/></g>
<g><path style="opacity:1" fill="#df693f" d="M 119.5,232.5 C 123.971,236.785 127.971,241.452 131.5,246.5C 126.1,245.933 123.266,242.933 123,237.5C 121.198,236.211 120.031,234.544 119.5,232.5 Z"/></g>
<g><path style="opacity:1" fill="#d98264" d="M 131.5,246.5 C 133.587,247.585 134.92,249.251 135.5,251.5C 133.413,250.415 132.08,248.749 131.5,246.5 Z"/></g>
<g><path style="opacity:1" fill="#de673e" d="M 361.5,233.5 C 361.131,235.441 360.464,237.275 359.5,239C 360.308,239.308 360.975,239.808 361.5,240.5C 357.598,242.236 354.098,244.57 351,247.5C 350.139,250.368 348.472,252.702 346,254.5C 344.991,256.025 344.491,257.692 344.5,259.5C 341.978,260.011 339.645,261.011 337.5,262.5C 344.752,252.245 352.752,242.578 361.5,233.5 Z"/></g>
<g><path style="opacity:0.182" fill="#ac5346" d="M 401.5,239.5 C 401.778,248.553 401.444,257.553 400.5,266.5C 400.167,266.5 399.833,266.5 399.5,266.5C 400.053,257.348 400.72,248.348 401.5,239.5 Z"/></g>
<g><path style="opacity:1" fill="#e1643d" d="M 135.5,251.5 C 138.871,254.871 141.871,258.537 144.5,262.5C 142.299,261.434 139.965,260.767 137.5,260.5C 136.833,257.5 136.167,254.5 135.5,251.5 Z"/></g>
<g><path style="opacity:1" fill="#e2592f" d="M 395.5,208.5 C 398.255,218.696 400.255,229.029 401.5,239.5C 400.72,248.348 400.053,257.348 399.5,266.5C 391.026,274.135 382.359,281.635 373.5,289C 372.167,289.333 370.833,289.667 369.5,290C 363.242,293.917 357.242,298.25 351.5,303C 348.936,304.396 346.269,305.563 343.5,306.5C 345.59,304.308 346.59,301.641 346.5,298.5C 349.187,298.664 351.854,298.497 354.5,298C 353.62,296.644 353.286,295.144 353.5,293.5C 355.484,293.617 357.15,292.95 358.5,291.5C 359.711,292.274 359.711,293.107 358.5,294C 361.926,295.238 363.592,294.071 363.5,290.5C 364.833,290.5 366.167,290.5 367.5,290.5C 367.5,289.5 367.5,288.5 367.5,287.5C 369.527,287.662 371.527,287.495 373.5,287C 375.194,285.061 377.027,283.228 379,281.5C 379.483,280.552 379.649,279.552 379.5,278.5C 383.962,278.379 386.629,276.046 387.5,271.5C 386.246,269.666 385.579,267.666 385.5,265.5C 390.331,265.162 391.665,267.162 389.5,271.5C 390.5,271.5 391.5,271.5 392.5,271.5C 393.28,268.899 394.946,266.899 397.5,265.5C 398.833,253.167 398.833,240.833 397.5,228.5C 395.826,226.651 394.826,224.484 394.5,222C 395.332,219.522 395.499,217.022 395,214.5C 394,213.167 393,213.167 392,214.5C 392.083,211.881 392.25,209.214 392.5,206.5C 391.448,206.351 390.448,206.517 389.5,207C 388.181,210.155 385.848,211.988 382.5,212.5C 383.6,211.395 384.267,210.062 384.5,208.5C 386.552,207.29 388.718,206.29 391,205.5C 392.893,206.008 394.393,207.008 395.5,208.5 Z"/></g>
<g><path style="opacity:1" fill="#d86e46" d="M 144.5,262.5 C 149.445,266.413 153.445,271.08 156.5,276.5C 150.665,273.337 146.665,268.671 144.5,262.5 Z"/></g>
<g><path style="opacity:1" fill="#fef0e4" d="M 234.5,173.5 C 236.732,189.975 237.065,206.642 235.5,223.5C 236.146,247.83 236.646,272.163 237,296.5C 237.309,295.234 237.809,294.067 238.5,293C 238.167,292.667 237.833,292.333 237.5,292C 239.694,289.842 241.027,290.175 241.5,293C 240.46,295.131 238.96,296.964 237,298.5C 237.497,302.894 235.664,305.228 231.5,305.5C 229.949,302.381 228.949,299.048 228.5,295.5C 229.833,296.167 230.833,297.167 231.5,298.5C 232.122,299.627 232.955,300.627 234,301.5C 234.5,275.502 234.667,249.502 234.5,223.5C 234.5,206.833 234.5,190.167 234.5,173.5 Z"/></g>
<g><path style="opacity:1" fill="#d47451" d="M 337.5,262.5 C 330.902,270.94 324.069,279.274 317,287.5C 314.894,290.118 312.394,292.118 309.5,293.5C 318.862,283.141 328.195,272.808 337.5,262.5 Z"/></g>
<g><path style="opacity:0.188" fill="#b5b4c6" d="M 81.5,267.5 C 82.1667,267.5 82.8333,267.5 83.5,267.5C 83.5,267.833 83.5,268.167 83.5,268.5C 82.8614,269.097 82.528,269.93 82.5,271C 83.5671,276.834 84.5671,282.667 85.5,288.5C 85.5,288.833 85.5,289.167 85.5,289.5C 83.1063,282.482 81.773,275.149 81.5,267.5 Z"/></g>
<g><path style="opacity:1" fill="#c2634a" d="M 397.5,286.5 C 396.406,292.439 394.739,298.106 392.5,303.5C 392.032,299.869 392.699,296.535 394.5,293.5C 393.3,292.708 391.967,292.708 390.5,293.5C 392.64,290.939 394.973,288.605 397.5,286.5 Z"/></g>
<g><path style="opacity:1" fill="#da5b32" d="M 85.5,288.5 C 91.7915,292.791 97.7915,297.458 103.5,302.5C 101.738,302.357 100.071,302.691 98.5,303.5C 98.2287,300.062 96.3954,298.062 93,297.5C 92.0546,297.905 91.3879,298.572 91,299.5C 90.5045,301.473 90.3379,303.473 90.5,305.5C 88.0592,300.506 86.3926,295.172 85.5,289.5C 85.5,289.167 85.5,288.833 85.5,288.5 Z"/></g>
<g><path style="opacity:1" fill="#d56f4c" d="M 386.5,296.5 C 385.833,297.5 385.167,298.5 384.5,299.5C 381.018,301.748 377.684,304.248 374.5,307C 372.846,307.608 371.179,308.108 369.5,308.5C 374.949,304.268 380.615,300.268 386.5,296.5 Z"/></g>
<g><path style="opacity:1" fill="#ef5421" d="M 103.5,302.5 C 111.57,307.858 119.57,313.192 127.5,318.5C 128.091,319.151 128.757,319.818 129.5,320.5C 128.359,321.425 128.359,322.259 129.5,323C 133.687,322.766 136.354,324.6 137.5,328.5C 140.28,331.224 143.614,332.89 147.5,333.5C 151.491,332.386 155.491,332.386 159.5,333.5C 159.5,334.5 159.5,335.5 159.5,336.5C 165.363,337.442 171.03,338.942 176.5,341C 181.031,343.933 186.031,345.099 191.5,344.5C 193.786,344.595 195.786,345.262 197.5,346.5C 197.611,347.117 197.944,347.617 198.5,348C 204.01,349.89 209.676,350.723 215.5,350.5C 220.141,351.127 224.807,351.46 229.5,351.5C 229.293,354.241 228.293,356.574 226.5,358.5C 224.525,361.306 222.025,363.639 219,365.5C 218.667,367.5 218.333,369.5 218,371.5C 215.957,373.208 214.29,375.208 213,377.5C 211.266,378.249 209.433,378.749 207.5,379C 206.859,381.13 205.526,382.63 203.5,383.5C 202.571,384.689 202.238,386.022 202.5,387.5C 200.876,387.64 199.71,386.973 199,385.5C 198.906,390.23 196.74,391.563 192.5,389.5C 191.289,390.274 191.289,391.107 192.5,392C 189.883,392.822 187.216,393.322 184.5,393.5C 184.5,394.833 184.5,396.167 184.5,397.5C 184.167,397.5 183.833,397.5 183.5,397.5C 176.883,398.38 172.383,395.713 170,389.5C 169.481,390.516 168.647,391.182 167.5,391.5C 163.644,389.438 159.644,387.772 155.5,386.5C 155.631,385.761 155.464,385.094 155,384.5C 151.412,381.286 147.246,378.952 142.5,377.5C 139.911,376.581 137.911,374.914 136.5,372.5C 135.415,370.413 133.749,369.08 131.5,368.5C 129.167,364.167 125.833,360.833 121.5,358.5C 113.247,349.916 106.58,340.249 101.5,329.5C 100.213,326.302 99.5465,322.969 99.5,319.5C 98.5,319.5 97.5,319.5 96.5,319.5C 95.9195,315.753 94.9195,312.086 93.5,308.5C 92.8589,307.007 91.8589,306.007 90.5,305.5C 90.3379,303.473 90.5045,301.473 91,299.5C 91.3879,298.572 92.0546,297.905 93,297.5C 96.3954,298.062 98.2287,300.062 98.5,303.5C 100.071,302.691 101.738,302.357 103.5,302.5 Z"/></g>
<g><path style="opacity:1" fill="#d96c41" d="M 369.5,308.5 C 369.428,310.311 368.595,311.644 367,312.5C 364.41,314.273 361.577,315.273 358.5,315.5C 361.65,312.421 365.317,310.087 369.5,308.5 Z"/></g>
<g><path style="opacity:1" fill="#d0563b" d="M 90.5,305.5 C 91.8589,306.007 92.8589,307.007 93.5,308.5C 94.9195,312.086 95.9195,315.753 96.5,319.5C 97.5,319.5 98.5,319.5 99.5,319.5C 99.5465,322.969 100.213,326.302 101.5,329.5C 99.1904,326.898 97.3571,323.898 96,320.5C 93.6641,315.657 91.8308,310.657 90.5,305.5 Z"/></g>
<g><path style="opacity:1" fill="#ef5421" d="M 370.5,345.5 C 368.171,346.333 366.671,348 366,350.5C 365.586,350.043 365.086,349.709 364.5,349.5C 363.859,353.371 362.359,354.038 360,351.5C 360.207,353.751 360.373,356.085 360.5,358.5C 357.5,359.5 355.5,361.5 354.5,364.5C 346.685,373.317 337.685,380.651 327.5,386.5C 324.125,386.782 320.958,387.782 318,389.5C 316.441,388.971 314.941,388.304 313.5,387.5C 312.378,389.044 312.711,390.377 314.5,391.5C 310.35,393.718 306.017,395.385 301.5,396.5C 299.035,396.522 296.702,396.022 294.5,395C 293.663,393.989 293.33,392.822 293.5,391.5C 289.5,390.833 285.5,390.167 281.5,389.5C 279.354,387.259 277.854,384.592 277,381.5C 275.509,379.996 273.676,379.163 271.5,379C 271.833,378.667 272.167,378.333 272.5,378C 269.921,376.291 270.254,375.124 273.5,374.5C 277.19,376.505 279.19,375.505 279.5,371.5C 277.396,371.799 275.396,371.466 273.5,370.5C 273.088,368.113 272.088,366.113 270.5,364.5C 269.18,366.986 267.347,368.986 265,370.5C 264.82,368.512 264.986,366.512 265.5,364.5C 260.097,363.212 257.43,359.212 257.5,352.5C 269.397,350.173 281.397,347.839 293.5,345.5C 294.993,344.859 295.993,343.859 296.5,342.5C 302.857,342.599 308.857,341.266 314.5,338.5C 316.055,338.722 317.389,339.389 318.5,340.5C 319.731,339.349 319.731,338.183 318.5,337C 322.999,335.587 326.999,333.42 330.5,330.5C 331.514,329.326 332.847,328.66 334.5,328.5C 337.947,328.186 341.28,327.352 344.5,326C 347.203,322.981 350.536,320.981 354.5,320C 356.192,318.693 357.525,317.193 358.5,315.5C 361.577,315.273 364.41,314.273 367,312.5C 368.595,311.644 369.428,310.311 369.5,308.5C 371.179,308.108 372.846,307.608 374.5,307C 377.684,304.248 381.018,301.748 384.5,299.5C 386.044,299.297 387.378,298.63 388.5,297.5C 389.456,298.865 390.122,300.365 390.5,302C 387.564,306.929 385.398,313.429 384,321.5C 383.092,323.439 381.592,324.439 379.5,324.5C 379.662,326.527 379.495,328.527 379,330.5C 377.542,331.747 376.042,331.747 374.5,330.5C 373.5,332 372.5,333.5 371.5,335C 371.905,335.945 372.572,336.612 373.5,337C 372.167,338.333 370.833,339.667 369.5,341C 370.38,342.356 370.714,343.856 370.5,345.5 Z"/></g>
<g><path style="opacity:1" fill="#faf9f6" d="M 92.5,190.5 C 93.552,190.351 94.552,190.517 95.5,191C 111.514,202.339 126.347,215.172 140,229.5C 158.076,251.399 175.91,273.399 193.5,295.5C 202.79,307.124 212.79,318.124 223.5,328.5C 228.858,334.023 234.692,339.023 241,343.5C 252.141,335.382 261.975,326.049 270.5,315.5C 275.984,309.908 281.484,304.242 287,298.5C 301.333,280.167 315.667,261.833 330,243.5C 338.636,233.03 347.802,223.03 357.5,213.5C 365.69,206.582 374.023,199.916 382.5,193.5C 384.645,192.011 386.978,191.011 389.5,190.5C 391.363,194.755 393.03,199.088 394.5,203.5C 390.245,203.519 386.911,205.186 384.5,208.5C 375.757,215.907 368.09,224.24 361.5,233.5C 352.752,242.578 344.752,252.245 337.5,262.5C 328.195,272.808 318.862,283.141 309.5,293.5C 297.776,305.227 285.776,316.56 273.5,327.5C 270.047,329.739 266.714,332.239 263.5,335C 265.833,335.667 268.167,335.667 270.5,335C 275.012,334.038 279.345,332.871 283.5,331.5C 288.779,329.953 294.112,328.62 299.5,327.5C 302.647,327.263 305.647,326.43 308.5,325C 309.942,324.623 310.942,323.79 311.5,322.5C 318.882,318.65 326.549,315.483 334.5,313C 337.567,310.812 340.567,308.645 343.5,306.5C 346.269,305.563 348.936,304.396 351.5,303C 357.242,298.25 363.242,293.917 369.5,290C 370.833,289.667 372.167,289.333 373.5,289C 382.359,281.635 391.026,274.135 399.5,266.5C 399.833,266.5 400.167,266.5 400.5,266.5C 400.361,273.331 399.361,279.998 397.5,286.5C 394.973,288.605 392.64,290.939 390.5,293.5C 388.596,293.738 387.262,294.738 386.5,296.5C 380.615,300.268 374.949,304.268 369.5,308.5C 365.317,310.087 361.65,312.421 358.5,315.5C 351.341,319.245 344.007,322.745 336.5,326C 335.619,326.708 334.953,327.542 334.5,328.5C 332.847,328.66 331.514,329.326 330.5,330.5C 318.902,333.976 307.569,337.976 296.5,342.5C 281.991,346.002 267.324,349.002 252.5,351.5C 252.402,353.553 253.069,355.22 254.5,356.5C 258.399,365.294 263.566,373.294 270,380.5C 273.441,384.121 277.274,387.121 281.5,389.5C 283.647,391.47 285.98,393.303 288.5,395C 292.996,396.998 297.662,398.498 302.5,399.5C 295.053,403.538 287.053,406.205 278.5,407.5C 278.5,407.167 278.5,406.833 278.5,406.5C 279.613,405.054 279.78,403.387 279,401.5C 276.722,400.281 274.555,398.948 272.5,397.5C 268.888,393.221 264.888,389.221 260.5,385.5C 258.206,381.873 255.54,378.539 252.5,375.5C 251.244,371.313 249.244,367.646 246.5,364.5C 246.631,363.624 246.298,362.957 245.5,362.5C 244.183,378.897 244.183,395.231 245.5,411.5C 241.216,412.322 237.216,412.322 233.5,411.5C 234.5,410.167 235.5,408.833 236.5,407.5C 237.826,392.661 237.826,377.661 236.5,362.5C 235.702,362.957 235.369,363.624 235.5,364.5C 234.326,365.514 233.66,366.847 233.5,368.5C 230.204,373.474 226.871,378.474 223.5,383.5C 220.5,385.833 217.833,388.5 215.5,391.5C 212.225,394.808 208.558,397.642 204.5,400C 203.357,402.425 202.024,404.592 200.5,406.5C 192.948,405.538 185.948,403.205 179.5,399.5C 180.833,398.833 182.167,398.167 183.5,397.5C 183.833,397.5 184.167,397.5 184.5,397.5C 191.743,396.216 197.743,392.883 202.5,387.5C 213.392,380.271 221.392,370.604 226.5,358.5C 228.293,356.574 229.293,354.241 229.5,351.5C 224.807,351.46 220.141,351.127 215.5,350.5C 209.797,348.343 203.797,347.01 197.5,346.5C 195.786,345.262 193.786,344.595 191.5,344.5C 169.587,337.35 148.253,328.683 127.5,318.5C 119.57,313.192 111.57,307.858 103.5,302.5C 97.7915,297.458 91.7915,292.791 85.5,288.5C 84.5671,282.667 83.5671,276.834 82.5,271C 82.528,269.93 82.8614,269.097 83.5,268.5C 87.6558,271.757 91.6558,275.257 95.5,279C 97.0779,280.094 98.7446,280.928 100.5,281.5C 112.407,291.728 125.407,300.395 139.5,307.5C 148.268,313.217 157.601,317.884 167.5,321.5C 171.956,322.983 176.29,324.65 180.5,326.5C 184.502,328.61 188.835,329.943 193.5,330.5C 201.382,333.975 209.715,335.475 218.5,335C 216.291,332.952 213.958,331.119 211.5,329.5C 203.783,322.775 196.116,316.109 188.5,309.5C 181.167,301.5 173.5,293.833 165.5,286.5C 163.234,282.564 160.234,279.231 156.5,276.5C 153.445,271.08 149.445,266.413 144.5,262.5C 141.871,258.537 138.871,254.871 135.5,251.5C 134.92,249.251 133.587,247.585 131.5,246.5C 127.971,241.452 123.971,236.785 119.5,232.5C 117.57,228.9 114.903,225.9 111.5,223.5C 109.234,219.564 106.234,216.231 102.5,213.5C 101.833,212.167 100.833,211.167 99.5,210.5C 97.0543,206.022 93.3877,203.688 88.5,203.5C 89.0321,198.905 90.3654,194.571 92.5,190.5 Z"/></g>
<g><path style="opacity:1" fill="#d37150" d="M 309.5,293.5 C 299.089,306.579 287.089,317.912 273.5,327.5C 285.776,316.56 297.776,305.227 309.5,293.5 Z"/></g>
<g><path style="opacity:1" fill="#df6841" d="M 139.5,307.5 C 143.163,307.952 146.83,308.452 150.5,309C 148.729,309.535 148.396,310.369 149.5,311.5C 156.046,314.09 162.046,317.424 167.5,321.5C 157.601,317.884 148.268,313.217 139.5,307.5 Z"/></g>
<g><path style="opacity:1" fill="#e26137" d="M 100.5,281.5 C 105.239,283.708 109.905,286.208 114.5,289C 116.06,291.659 118.393,292.826 121.5,292.5C 121.281,291.325 121.614,290.325 122.5,289.5C 124.637,290.738 125.971,292.571 126.5,295C 130.932,295.623 131.265,296.623 127.5,298C 132.018,300.704 136.018,303.871 139.5,307.5C 125.407,300.395 112.407,291.728 100.5,281.5 Z"/></g>
<g><path style="opacity:1" fill="#d17250" d="M 165.5,286.5 C 173.5,293.833 181.167,301.5 188.5,309.5C 180.589,303.094 173.089,296.094 166,288.5C 165.536,287.906 165.369,287.239 165.5,286.5 Z"/></g>
<g><path style="opacity:1" fill="#dd592d" d="M 232.5,191.5 C 232.833,191.5 233.167,191.5 233.5,191.5C 233.5,202.167 233.5,212.833 233.5,223.5C 234.157,248.856 233.491,273.856 231.5,298.5C 230.833,297.167 229.833,296.167 228.5,295.5C 227.18,292.86 225.847,290.193 224.5,287.5C 225.847,288.171 227.014,288.171 228,287.5C 228.806,290.446 230.139,293.112 232,295.5C 232.5,260.835 232.667,226.168 232.5,191.5 Z"/></g>
<g><path style="opacity:1" fill="#e35e33" d="M 280.5,247.5 C 279.637,249.421 278.971,251.421 278.5,253.5C 273.06,262.716 267.893,272.05 263,281.5C 259.236,286.056 255.736,290.723 252.5,295.5C 252.5,293.833 252.5,292.167 252.5,290.5C 254.124,290.64 255.29,289.973 256,288.5C 256.374,286.102 256.374,283.769 256,281.5C 256.333,281.833 256.667,282.167 257,282.5C 258.667,281.833 260.333,281.167 262,280.5C 262.61,277.173 263.11,273.839 263.5,270.5C 264.5,270.5 265.5,270.5 266.5,270.5C 266.477,268.4 267.144,266.567 268.5,265C 267.235,263.344 265.901,261.677 264.5,260C 265.191,258.933 265.691,257.766 266,256.5C 266.333,256.833 266.667,257.167 267,257.5C 267.308,256.692 267.808,256.025 268.5,255.5C 269.318,258.107 269.818,260.774 270,263.5C 271.413,261.348 272.246,259.014 272.5,256.5C 273.5,256.5 274.5,256.5 275.5,256.5C 275.113,252.249 276.78,249.249 280.5,247.5 Z"/></g>
<g><path style="opacity:1" fill="#ce6944" d="M 247.5,255.5 C 247.833,255.5 248.167,255.5 248.5,255.5C 247.85,270.206 248.517,284.539 250.5,298.5C 250.027,299.906 249.027,300.573 247.5,300.5C 247.5,285.5 247.5,270.5 247.5,255.5 Z"/></g>
<g><path style="opacity:1" fill="#da633a" d="M 215.5,272.5 C 217.306,274.089 218.639,276.089 219.5,278.5C 220.325,279.386 221.325,279.719 222.5,279.5C 222.694,282.33 223.361,284.996 224.5,287.5C 220.315,283.292 217.315,278.292 215.5,272.5 Z"/></g>
<g><path style="opacity:1" fill="#cd7253" d="M 233.5,223.5 C 233.833,223.5 234.167,223.5 234.5,223.5C 234.667,249.502 234.5,275.502 234,301.5C 232.955,300.627 232.122,299.627 231.5,298.5C 233.491,273.856 234.157,248.856 233.5,223.5 Z"/></g>
<g><path style="opacity:1" fill="#d57b5b" d="M 156.5,276.5 C 160.234,279.231 163.234,282.564 165.5,286.5C 161.766,283.769 158.766,280.436 156.5,276.5 Z"/></g>
<g><path style="opacity:1" fill="#1e5894" d="M 177.5,228.5 C 183.208,240.917 189.208,253.251 195.5,265.5C 193.154,263.663 190.654,261.996 188,260.5C 187.434,256.868 185.934,253.701 183.5,251C 184.526,248.536 183.692,246.702 181,245.5C 180.104,239.682 178.938,234.015 177.5,228.5 Z"/></g>
<g><path style="opacity:1" fill="#d46540" d="M 201.5,248.5 C 204.978,251.189 206.978,254.856 207.5,259.5C 205.25,256.001 203.25,252.335 201.5,248.5 Z"/></g>
<g><path style="opacity:1" fill="#265b95" d="M 309.5,215.5 C 309.662,217.527 309.495,219.527 309,221.5C 306.348,227.152 304.182,232.986 302.5,239C 302.645,239.772 302.978,240.439 303.5,241C 302.033,242.098 301.199,243.598 301,245.5C 300.296,243.273 299.129,242.94 297.5,244.5C 301.52,234.757 305.52,225.09 309.5,215.5 Z"/></g>
<g><path style="opacity:1" fill="#fbe4d3" d="M 299.5,191.5 C 299.587,198.54 299.087,205.54 298,212.5C 295.149,217.408 293.149,222.742 292,228.5C 287.249,235.91 283.749,243.91 281.5,252.5C 281.124,254.803 280.124,255.137 278.5,253.5C 278.971,251.421 279.637,249.421 280.5,247.5C 286.743,236.655 291.077,224.988 293.5,212.5C 295.966,205.638 297.966,198.638 299.5,191.5 Z"/></g>
<g><path style="opacity:1" fill="#336296" d="M 171.5,212.5 C 174.013,217.547 176.013,222.88 177.5,228.5C 176.504,228.586 175.671,228.252 175,227.5C 173.142,222.717 171.975,217.717 171.5,212.5 Z"/></g>
<g><path style="opacity:1" fill="#d66b47" d="M 186.5,207.5 C 188.976,210.288 189.976,213.622 189.5,217.5C 187.723,214.495 186.723,211.162 186.5,207.5 Z"/></g>
<g><path style="opacity:1" fill="#205890" d="M 382.5,193.5 C 374.023,199.916 365.69,206.582 357.5,213.5C 357.67,212.178 357.337,211.011 356.5,210C 357.833,209.667 359.167,209.333 360.5,209C 361.453,207.045 362.787,205.378 364.5,204C 367.711,203.268 369.711,201.434 370.5,198.5C 373.875,195.826 377.875,194.159 382.5,193.5 Z"/></g>
<g><path style="opacity:1" fill="#f8c8b7" d="M 311.5,322.5 C 310.942,323.79 309.942,324.623 308.5,325C 305.647,326.43 302.647,327.263 299.5,327.5C 303.203,325.321 307.203,323.655 311.5,322.5 Z"/></g>
<g><path style="opacity:1" fill="#e0643d" d="M 358.5,315.5 C 357.525,317.193 356.192,318.693 354.5,320C 350.536,320.981 347.203,322.981 344.5,326C 341.28,327.352 337.947,328.186 334.5,328.5C 334.953,327.542 335.619,326.708 336.5,326C 344.007,322.745 351.341,319.245 358.5,315.5 Z"/></g>
<g><path style="opacity:1" fill="#e28e6f" d="M 180.5,326.5 C 185.165,327.057 189.498,328.39 193.5,330.5C 188.835,329.943 184.502,328.61 180.5,326.5 Z"/></g>
<g><path style="opacity:1" fill="#165598" d="M 213.5,292.5 C 222.069,302.573 231.236,312.24 241,321.5C 242.371,319.959 243.871,318.625 245.5,317.5C 245.32,322.557 242.653,324.89 237.5,324.5C 236.754,325.736 236.421,327.07 236.5,328.5C 239.05,328.439 240.55,327.106 241,324.5C 242.973,325.64 244.807,326.973 246.5,328.5C 244.149,329.012 242.149,330.012 240.5,331.5C 244.948,330.392 249.615,330.392 254.5,331.5C 254.607,329.097 253.607,327.264 251.5,326C 253.818,326.768 255.651,325.934 257,323.5C 257.561,324.022 258.228,324.355 259,324.5C 260.368,323.297 261.868,322.297 263.5,321.5C 264.024,317.403 266.358,315.403 270.5,315.5C 261.975,326.049 252.141,335.382 241,343.5C 234.692,339.023 228.858,334.023 223.5,328.5C 212.79,318.124 202.79,307.124 193.5,295.5C 197.601,297.765 200.934,300.932 203.5,305C 206.14,305.839 208.473,305.339 210.5,303.5C 211.919,299.914 212.919,296.247 213.5,292.5 Z"/></g>
<g><path style="opacity:1" fill="#0453a0" d="M 223.5,328.5 C 220.985,324.854 218.319,321.188 215.5,317.5C 216.09,316.201 217.09,315.368 218.5,315C 216.5,315 214.5,315 212.5,315C 211.099,312.469 209.433,310.136 207.5,308C 212.872,307.095 215.872,303.928 216.5,298.5C 218.849,300.204 219.849,302.537 219.5,305.5C 218.178,305.33 217.011,305.663 216,306.5C 216.667,308.167 216.667,309.833 216,311.5C 216.915,310.672 217.581,309.672 218,308.5C 218.414,308.957 218.914,309.291 219.5,309.5C 220.281,308.263 221.281,307.263 222.5,306.5C 225.51,309.181 227.51,312.514 228.5,316.5C 230.198,315.319 231.865,315.319 233.5,316.5C 231.599,317.545 229.933,318.878 228.5,320.5C 229.991,321.244 231.491,321.91 233,322.5C 233,324.5 233,326.5 233,328.5C 234.744,331.244 236.577,333.91 238.5,336.5C 235.58,337.708 233.58,336.708 232.5,333.5C 229.726,331.385 226.726,329.719 223.5,328.5 Z"/></g>
<g><path style="opacity:1" fill="#e55b2d" d="M 127.5,318.5 C 148.253,328.683 169.587,337.35 191.5,344.5C 186.031,345.099 181.031,343.933 176.5,341C 171.03,338.942 165.363,337.442 159.5,336.5C 159.5,335.5 159.5,334.5 159.5,333.5C 155.491,332.386 151.491,332.386 147.5,333.5C 143.614,332.89 140.28,331.224 137.5,328.5C 136.354,324.6 133.687,322.766 129.5,323C 128.359,322.259 128.359,321.425 129.5,320.5C 128.757,319.818 128.091,319.151 127.5,318.5 Z"/></g>
<g><path style="opacity:1" fill="#d4714b" d="M 211.5,329.5 C 213.958,331.119 216.291,332.952 218.5,335C 209.715,335.475 201.382,333.975 193.5,330.5C 199.487,330.55 205.321,331.55 211,333.5C 211.5,333.167 212,332.833 212.5,332.5C 211.873,331.583 211.539,330.583 211.5,329.5 Z"/></g>
<g><path style="opacity:1" fill="#d16943" d="M 273.5,327.5 C 272.524,328.815 271.524,330.148 270.5,331.5C 274.792,332.274 279.125,332.274 283.5,331.5C 279.345,332.871 275.012,334.038 270.5,335C 268.167,335.667 265.833,335.667 263.5,335C 266.714,332.239 270.047,329.739 273.5,327.5 Z"/></g>
<g><path style="opacity:1" fill="#e05931" d="M 392.5,303.5 C 387.757,318.991 380.424,332.991 370.5,345.5C 370.714,343.856 370.38,342.356 369.5,341C 370.833,339.667 372.167,338.333 373.5,337C 372.572,336.612 371.905,335.945 371.5,335C 372.5,333.5 373.5,332 374.5,330.5C 376.042,331.747 377.542,331.747 379,330.5C 379.495,328.527 379.662,326.527 379.5,324.5C 381.592,324.439 383.092,323.439 384,321.5C 385.398,313.429 387.564,306.929 390.5,302C 390.122,300.365 389.456,298.865 388.5,297.5C 387.378,298.63 386.044,299.297 384.5,299.5C 385.167,298.5 385.833,297.5 386.5,296.5C 387.262,294.738 388.596,293.738 390.5,293.5C 391.967,292.708 393.3,292.708 394.5,293.5C 392.699,296.535 392.032,299.869 392.5,303.5 Z"/></g>
<g><path style="opacity:1" fill="#e0653b" d="M 330.5,330.5 C 326.999,333.42 322.999,335.587 318.5,337C 319.731,338.183 319.731,339.349 318.5,340.5C 317.389,339.389 316.055,338.722 314.5,338.5C 308.857,341.266 302.857,342.599 296.5,342.5C 307.569,337.976 318.902,333.976 330.5,330.5 Z"/></g>
<g><path style="opacity:1" fill="#da6037" d="M 197.5,346.5 C 203.797,347.01 209.797,348.343 215.5,350.5C 209.676,350.723 204.01,349.89 198.5,348C 197.944,347.617 197.611,347.117 197.5,346.5 Z"/></g>
<g><path style="opacity:1" fill="#d9724c" d="M 296.5,342.5 C 295.993,343.859 294.993,344.859 293.5,345.5C 281.397,347.839 269.397,350.173 257.5,352.5C 256.5,352.5 255.5,352.5 254.5,352.5C 254.5,353.833 254.5,355.167 254.5,356.5C 253.069,355.22 252.402,353.553 252.5,351.5C 267.324,349.002 281.991,346.002 296.5,342.5 Z"/></g>
<g><path style="opacity:1" fill="#d45b3b" d="M 370.5,345.5 C 367.901,350.428 364.568,354.761 360.5,358.5C 360.373,356.085 360.207,353.751 360,351.5C 362.359,354.038 363.859,353.371 364.5,349.5C 365.086,349.709 365.586,350.043 366,350.5C 366.671,348 368.171,346.333 370.5,345.5 Z"/></g>
<g><path style="opacity:0.635" fill="#bf5e4b" d="M 121.5,358.5 C 125.833,360.833 129.167,364.167 131.5,368.5C 127.833,365.5 124.5,362.167 121.5,358.5 Z"/></g>
<g><path style="opacity:0.2" fill="#c1614e" d="M 360.5,358.5 C 358.833,360.833 356.833,362.833 354.5,364.5C 355.5,361.5 357.5,359.5 360.5,358.5 Z"/></g>
<g><path style="opacity:0.675" fill="#bf6551" d="M 131.5,368.5 C 133.749,369.08 135.415,370.413 136.5,372.5C 134.251,371.92 132.585,370.587 131.5,368.5 Z"/></g>
<g><path style="opacity:1" fill="#e9592a" d="M 257.5,352.5 C 257.43,359.212 260.097,363.212 265.5,364.5C 264.986,366.512 264.82,368.512 265,370.5C 267.347,368.986 269.18,366.986 270.5,364.5C 272.088,366.113 273.088,368.113 273.5,370.5C 275.396,371.466 277.396,371.799 279.5,371.5C 279.19,375.505 277.19,376.505 273.5,374.5C 270.254,375.124 269.921,376.291 272.5,378C 272.167,378.333 271.833,378.667 271.5,379C 273.676,379.163 275.509,379.996 277,381.5C 277.854,384.592 279.354,387.259 281.5,389.5C 277.274,387.121 273.441,384.121 270,380.5C 263.566,373.294 258.399,365.294 254.5,356.5C 254.5,355.167 254.5,353.833 254.5,352.5C 255.5,352.5 256.5,352.5 257.5,352.5 Z"/></g>
<g><path style="opacity:1" fill="#dd673f" d="M 233.5,368.5 C 233.494,371.518 232.494,374.184 230.5,376.5C 231.326,377.451 231.492,378.451 231,379.5C 230.667,379.167 230.333,378.833 230,378.5C 228.074,380.539 225.907,382.206 223.5,383.5C 226.871,378.474 230.204,373.474 233.5,368.5 Z"/></g>
<g><path style="opacity:0.965" fill="#d15c40" d="M 142.5,377.5 C 147.246,378.952 151.412,381.286 155,384.5C 155.464,385.094 155.631,385.761 155.5,386.5C 150.335,384.662 146.001,381.662 142.5,377.5 Z"/></g>
<g><path style="opacity:1" fill="#de5e34" d="M 226.5,358.5 C 221.392,370.604 213.392,380.271 202.5,387.5C 202.238,386.022 202.571,384.689 203.5,383.5C 205.526,382.63 206.859,381.13 207.5,379C 209.433,378.749 211.266,378.249 213,377.5C 214.29,375.208 215.957,373.208 218,371.5C 218.333,369.5 218.667,367.5 219,365.5C 222.025,363.639 224.525,361.306 226.5,358.5 Z"/></g>
<g><path style="opacity:1" fill="#ee5523" d="M 252.5,375.5 C 255.54,378.539 258.206,381.873 260.5,385.5C 262.222,391.709 266.222,395.709 272.5,397.5C 274.555,398.948 276.722,400.281 279,401.5C 279.78,403.387 279.613,405.054 278.5,406.5C 268.561,408.132 258.561,409.465 248.5,410.5C 247.833,410.5 247.5,410.167 247.5,409.5C 246.39,396.533 246.223,383.533 247,370.5C 248.75,372.424 250.583,374.091 252.5,375.5 Z"/></g>
<g><path style="opacity:1" fill="#d16641" d="M 246.5,364.5 C 249.244,367.646 251.244,371.313 252.5,375.5C 250.583,374.091 248.75,372.424 247,370.5C 246.223,383.533 246.39,396.533 247.5,409.5C 246.778,409.082 246.278,408.416 246,407.5C 245.173,392.994 245.339,378.661 246.5,364.5 Z"/></g>
<g><path style="opacity:1" fill="#da5d37" d="M 327.5,386.5 C 319.615,391.61 311.282,395.943 302.5,399.5C 297.662,398.498 292.996,396.998 288.5,395C 285.98,393.303 283.647,391.47 281.5,389.5C 285.5,390.167 289.5,390.833 293.5,391.5C 293.33,392.822 293.663,393.989 294.5,395C 296.702,396.022 299.035,396.522 301.5,396.5C 306.017,395.385 310.35,393.718 314.5,391.5C 312.711,390.377 312.378,389.044 313.5,387.5C 314.941,388.304 316.441,388.971 318,389.5C 320.958,387.782 324.125,386.782 327.5,386.5 Z"/></g>
<g><path style="opacity:1" fill="#d57555" d="M 223.5,383.5 C 221.833,387.167 219.167,389.833 215.5,391.5C 217.833,388.5 220.5,385.833 223.5,383.5 Z"/></g>
<g><path style="opacity:1" fill="#f6c7b6" d="M 246.5,364.5 C 245.339,378.661 245.173,392.994 246,407.5C 246.278,408.416 246.778,409.082 247.5,409.5C 247.5,410.167 247.833,410.5 248.5,410.5C 248.5,410.833 248.5,411.167 248.5,411.5C 247.5,411.5 246.5,411.5 245.5,411.5C 244.183,395.231 244.183,378.897 245.5,362.5C 246.298,362.957 246.631,363.624 246.5,364.5 Z"/></g>
<g><path style="opacity:1" fill="#e25e33" d="M 202.5,387.5 C 197.743,392.883 191.743,396.216 184.5,397.5C 184.5,396.167 184.5,394.833 184.5,393.5C 187.216,393.322 189.883,392.822 192.5,392C 191.289,391.107 191.289,390.274 192.5,389.5C 196.74,391.563 198.906,390.23 199,385.5C 199.71,386.973 200.876,387.64 202.5,387.5 Z"/></g>
<g><path style="opacity:1" fill="#da6843" d="M 260.5,385.5 C 264.888,389.221 268.888,393.221 272.5,397.5C 266.222,395.709 262.222,391.709 260.5,385.5 Z"/></g>
<g><path style="opacity:1" fill="#d65937" d="M 155.5,386.5 C 159.644,387.772 163.644,389.438 167.5,391.5C 168.647,391.182 169.481,390.516 170,389.5C 172.383,395.713 176.883,398.38 183.5,397.5C 182.167,398.167 180.833,398.833 179.5,399.5C 170.565,396.703 162.565,392.369 155.5,386.5 Z"/></g>
<g><path style="opacity:1" fill="#f8bca5" d="M 236.5,407.5 C 236.829,392.99 236.496,378.657 235.5,364.5C 235.369,363.624 235.702,362.957 236.5,362.5C 237.826,377.661 237.826,392.661 236.5,407.5 Z"/></g>
<g><path style="opacity:1" fill="#ee5423" d="M 233.5,368.5 C 234.83,374.631 235.497,381.131 235.5,388C 235.333,394.5 235.167,401 235,407.5C 233.151,408.561 231.151,409.227 229,409.5C 220.639,409.071 212.473,407.737 204.5,405.5C 204.343,404.127 204.51,402.793 205,401.5C 209.554,399.164 213.054,395.83 215.5,391.5C 219.167,389.833 221.833,387.167 223.5,383.5C 225.907,382.206 228.074,380.539 230,378.5C 230.333,378.833 230.667,379.167 231,379.5C 231.492,378.451 231.326,377.451 230.5,376.5C 232.494,374.184 233.494,371.518 233.5,368.5 Z"/></g>
<g><path style="opacity:0.976" fill="#c05342" d="M 278.5,406.5 C 278.5,406.833 278.5,407.167 278.5,407.5C 268.815,410.216 258.815,411.549 248.5,411.5C 248.5,411.167 248.5,410.833 248.5,410.5C 258.561,409.465 268.561,408.132 278.5,406.5 Z"/></g>
<g><path style="opacity:0.939" fill="#cf6041" d="M 235.5,364.5 C 236.496,378.657 236.829,392.99 236.5,407.5C 235.5,408.833 234.5,410.167 233.5,411.5C 222.11,411.538 211.11,409.871 200.5,406.5C 202.024,404.592 203.357,402.425 204.5,400C 208.558,397.642 212.225,394.808 215.5,391.5C 213.054,395.83 209.554,399.164 205,401.5C 204.51,402.793 204.343,404.127 204.5,405.5C 212.473,407.737 220.639,409.071 229,409.5C 231.151,409.227 233.151,408.561 235,407.5C 235.167,401 235.333,394.5 235.5,388C 235.497,381.131 234.83,374.631 233.5,368.5C 233.66,366.847 234.326,365.514 235.5,364.5 Z"/></g>
</svg>
